# xmcd CD database file
#
# Track frame offsets:
#	150
#	16922
#	37500
#	66090
#	88817
#	110590
#	127535
#	149535
#	166040
#	189472
#	211640
#
# Disc length: 3337 seconds
#
# Revision: 3
# Processed by: cddbd v1.5.2PL0 Copyright (c) Steve Scherf et al.
# Submitted via: CDex 1.51
#
DISCID=810d070b
DTITLE=Citrus Sun - Another Time Another Space
DYEAR=2001
DGENRE=Jazz
TTITLE0=Make Me Smile
TTITLE1=Tanya's Song
TTITLE2=Budapest
TTITLE3=Another Time, Another Space
TTITLE4=Where The Wind Blows
TTITLE5=So What Can I Do?
TTITLE6=Blue Orchid
TTITLE7=Somewhere, Nowhere
TTITLE8=What It Is
TTITLE9=Full Circle
TTITLE10=Mellowed
EXTD=YEAR: 2001
EXTT0=
EXTT1=
EXTT2=
EXTT3=
EXTT4=
EXTT5=
EXTT6=
EXTT7=
EXTT8=
EXTT9=
EXTT10=
PLAYORDER=
